 <svg
      xmlns="http://www.w3.org/2000/svg"
      width="25"
      height="23"
      viewBox="0 0 25 23"
      fill="none"
    >
      <path
        d="M19.1961 7.91591V5.29773C19.608 5.13603 19.9567 4.87939 20.2017 4.55767C20.4467 4.23596 20.5779 3.86242 20.58 3.48052V3.42039C20.58 2.3069 19.5054 1.40424 18.1799 1.40424H18.1083C17.4717 1.40424 16.8613 1.61665 16.4111 1.99475C15.961 2.37286 15.7082 2.88567 15.7082 3.42039V3.48052C15.7103 3.86242 15.8414 4.23596 16.0864 4.55767C16.3314 4.87939 16.6802 5.13603 17.092 5.29773V7.91591C15.9083 8.06817 14.7934 8.48046 13.8604 9.11105L5.31238 3.51838C5.37335 3.33354 5.40517 3.1435 5.4087 2.95272C5.40975 2.5034 5.25214 2.06391 4.9558 1.68984C4.65946 1.31577 4.23772 1.02393 3.74391 0.851233C3.2501 0.678538 2.7064 0.632745 2.1816 0.719648C1.65681 0.806551 1.17448 1.02224 0.795631 1.33945C0.416784 1.65665 0.158437 2.06111 0.0532694 2.50166C-0.0518985 2.94222 0.000842068 3.39908 0.204811 3.81445C0.408779 4.22983 0.754813 4.58506 1.19915 4.83521C1.64349 5.08536 2.16616 5.2192 2.70106 5.21978C3.16902 5.21793 3.62822 5.11299 4.03279 4.91543L12.45 10.4175C11.6938 11.3771 11.2994 12.5058 11.318 13.6565C11.3366 14.8071 11.7674 15.9264 12.5543 16.8683L9.99419 19.0196C9.78725 18.964 9.57165 18.9345 9.3544 18.932C8.91533 18.9323 8.48622 19.0419 8.1213 19.247C7.75637 19.4521 7.47201 19.7435 7.30415 20.0843C7.13628 20.4251 7.09245 20.8 7.1782 21.1618C7.26394 21.5235 7.47541 21.8558 7.78588 22.1166C8.09635 22.3774 8.49188 22.555 8.92249 22.627C9.3531 22.699 9.79948 22.6622 10.2052 22.5212C10.6109 22.3802 10.9577 22.1413 11.2019 21.8348C11.4461 21.5282 11.5765 21.1678 11.5769 20.799C11.574 20.6165 11.5389 20.4353 11.4726 20.2615L14.0053 18.1333C14.8312 18.6674 15.7916 19.0356 16.8131 19.2097C17.8346 19.3839 18.8899 19.3593 19.8983 19.1378C20.9067 18.9164 21.8414 18.5041 22.6308 17.9323C23.4202 17.3606 24.0433 16.6447 24.4524 15.8394C24.8615 15.0341 25.0458 14.1608 24.9911 13.2865C24.9364 12.4122 24.6441 11.5599 24.1368 10.7951C23.6294 10.0303 22.9204 9.37322 22.064 8.87415C21.2076 8.37508 20.2266 8.0473 19.1961 7.91591ZM18.1463 16.5269C17.6782 16.5377 17.2123 16.4696 16.7761 16.3266C16.3399 16.1836 15.9423 15.9686 15.6066 15.6943C15.271 15.4201 15.0042 15.0921 14.8221 14.7297C14.6399 14.3674 14.5461 13.978 14.5461 13.5847C14.5461 13.1913 14.6399 12.802 14.8221 12.4396C15.0042 12.0773 15.271 11.7493 15.6066 11.475C15.9423 11.2007 16.3399 10.9857 16.7761 10.8427C17.2123 10.6997 17.6782 10.6316 18.1463 10.6425C19.0535 10.6692 19.9129 10.9905 20.5436 11.539C21.1743 12.0874 21.5271 12.82 21.5275 13.5825C21.528 14.345 21.1761 15.0779 20.5461 15.6269C19.916 16.1758 19.057 16.4979 18.1498 16.5254"
        fill="#FF5C35"
      />
    </svg>